<svg version="1.2" xmlns="http://www.w3.org/2000/svg" viewBox="0 0 64 64" width="64" height="64">
	<title>online-learning-svg</title>
	<style>
		.s0 { fill: #000000 } 
	</style>
	<g id="Layer">
		<path id="Layer" fill-rule="evenodd" class="s0" d="m34.2 1.1c0.7 0.3 3.4 1.7 3.6 1.9 0.1 0.1 0.1 0.4 0.2 0.6 0.1 0.5 0.1 0.6 0.8 1 0.6 0.3 0.7 0.3 0.9 0.1 0.1-0.1 0.4-0.2 0.6-0.2 0.6 0 12.9 6.5 13.6 7.2 1 0.9 1.4 2.4 1.1 3.6l-0.2 0.7h1.1c1.3 0 2.4 0.2 3 0.5 0.8 0.4 1.7 1.3 2.1 2.1l0.3 0.7 0.1 34.9h1.1c0.9 0.1 1 0.1 1.2 0.4 0.3 0.3 0.3 0.5 0.3 1.8 0 2.5-0.5 3.7-1.9 5.1q-1.3 1.3-2.8 1.6c-0.4 0.1-9.5 0.2-27.7 0.1h-27l-1-0.5c-1.3-0.6-2.3-1.6-2.9-2.7-0.6-1.2-0.7-1.9-0.7-3.7 0-1.9 0.1-2 1.6-2.1h1l0.1-34.9 0.3-0.7c0.5-0.9 1.5-1.9 2.5-2.2 0.5-0.2 1.1-0.3 2.2-0.4h1.5l-0.2-0.7c-0.3-1.3 0.2-3 1.2-3.8 0.3-0.2 4.4-2.4 9.1-4.9 10.3-5.5 10.5-5.6 11.1-5.7 0.9-0.2 3.1-0.1 3.8 0.2zm-23.1 16.8h-2.1c-2.6 0-3.2 0.1-3.8 0.9-0.7 0.7-0.7-0.3-0.7 18.3v17h55v-17c0-15.2 0-17.2-0.2-17.6-0.2-0.6-0.6-1-1.2-1.3-0.5-0.2-0.8-0.3-2.9-0.3l-2.3-0.1-2.3 1.3-2.4 1.3h8.3l0.3 0.3c0.2 0.3 0.2 0.7 0.2 15.4 0 14.6 0 15-0.2 15.3l-0.3 0.3h-20.1-20l-0.4-0.3c-0.5-0.5-0.5-0.8-0.1-1.2l0.3-0.4h19.5l19.4-0.1v-27.3h-8.3v2.3c0 2.5-0.2 3.5-0.9 5-0.8 1.7-2.4 3.2-4.1 4.1l-0.8 0.3v0.9c0 0.7 0 0.8 1.1 2.6 0.6 1.1 1.1 2.1 1.2 2.4 0.2 1.2-0.5 2.5-1.5 3.1-0.8 0.4-2.6 0.4-3.4 0-1.2-0.6-1.8-2-1.5-3.2 0.1-0.3 0.6-1.4 1.2-2.4 0.8-1.4 1-1.8 1-2.2v-0.5l-1.1 0.3c-3.7 0.9-8.2 0.9-12.1-0.1-2.9-0.7-4.7-1.6-6.1-3-1-1-1.6-1.9-2.1-3.3-0.4-1-0.4-1.1-0.4-3.7l-0.1-2.6h-8.3v27.3l2.2 0.1c2 0 2.2 0 2.4 0.3 0.4 0.3 0.4 1 0 1.3-0.3 0.3-0.4 0.3-3.1 0.3-2.9 0-2.9 0-3.2-0.3-0.2-0.3-0.2-0.7-0.2-15.3 0-14.7 0-15.1 0.2-15.4l0.3-0.3 8.2-0.1-2.3-1.2zm29 20.1c-0.2 0-1.3 2.3-1.3 2.6 0 0.1 0.1 0.4 0.3 0.6 0.4 0.4 1.5 0.5 2 0 0.4-0.3 0.4-0.8-0.4-2.1-0.3-0.6-0.6-1.1-0.6-1.1zm-27 18.1h-11.3l0.1 1.1q0.2 2.7 2.5 3.8l0.5 0.3 26.9 0.1c26.9 0 26.9 0 27.6-0.3 1-0.3 1.8-1.1 2.2-2 0.4-0.7 0.5-1.1 0.5-1.9l0.1-1.1h-11.2c-10.6 0-11.3 0.1-11.3 0.2-0.6 1.9-1.9 3-3.7 3.3-1 0.2-6.9 0.2-8 0-1.8-0.3-3.1-1.4-3.7-3.3 0-0.1-0.7-0.2-11.2-0.2zm24.7 0h-11.6l0.2 0.4c0.3 0.4 0.7 0.8 1.2 1.1 0.6 0.3 8.2 0.3 8.8 0 0.5-0.3 1-0.7 1.2-1.1z"/>
		<path id="Layer" class="s0" d="m11.9 41.8c-0.4 0.4-0.4 0.9 0 1.3l0.3 0.3h6.6c6.3 0 6.7 0 7-0.3 0.4-0.3 0.4-1 0-1.4-0.3-0.2-0.7-0.2-6.9-0.2h-6.7z"/>
		<path id="Layer" class="s0" d="m12.2 45.5c-0.6 0.4-0.8 1.1-0.3 1.6l0.3 0.3h9.7c9.6 0 9.7 0 10-0.3 0.5-0.3 0.5-1.1 0.1-1.4-0.3-0.2-0.6-0.3-9.9-0.3-6.9 0-9.7 0-9.9 0.1z"/>
	</g>
</svg>