<svg version="1.2" xmlns="http://www.w3.org/2000/svg" viewBox="0 0 64 64" width="64" height="64">
	<title>training-svg</title>
	<style>
		.s0 { fill: #000000 } 
	</style>
	<g id="Layer">
		<path id="Layer" fill-rule="evenodd" class="s0" d="m20.9 3.9c0.3 0.7 0.3 0.9 0.1 6 0 2.3-0.1 3.2-0.3 3.6-0.4 1-1 2.1-1.7 2.8-0.8 0.8-0.8 0.9-0.6 2l0.2 0.6 5.4 0.1h5.5v-5.1l-0.1-5.1-0.5-0.2c-1.7-0.5-2.5-2.6-1.7-4.2 0.3-0.6 1.2-1.4 1.8-1.5 0.5-0.2 12.6-0.2 12.8-0.1 0.2 0.2 0.5 0.6 0.5 0.9 0 0.1-0.2 0.4-0.3 0.5-0.3 0.2-0.6 0.2-6.4 0.3-5.8 0.1-6.2 0.1-6.5 0.3-0.4 0.4-0.5 1-0.3 1.5 0.4 0.9-0.6 0.8 16.3 0.8 16.9 0 15.8 0.1 16.2-0.8 0.3-0.6 0.2-1-0.3-1.4l-0.3-0.4h-6.1c-5.9 0-6.1 0-6.3-0.3-0.2-0.1-0.3-0.4-0.3-0.6 0-0.2 0.1-0.5 0.2-0.6 0.3-0.2 0.5-0.3 6.4-0.3 3.6 0 6.3 0.1 6.5 0.2 0.6 0.1 1.5 0.9 1.8 1.5 0.8 1.6 0 3.7-1.7 4.2l-0.5 0.2v22.6l0.5 0.2c0.4 0.1 0.8 0.4 1.1 0.7 1.3 1.3 1.2 3.3-0.1 4.4-0.7 0.7-1.2 0.8-2.5 0.8h-1.3l-0.2 0.9c-0.4 1.8-1.7 3.4-3.3 4.2-0.8 0.4-0.9 0.4-1.2 0.3-0.2-0.1-0.4-0.4-0.5-0.6-0.2-0.4 0.1-0.8 1-1.2 0.8-0.4 1.6-1.3 2-2.1 1.1-2.3 0.1-5.2-2.2-6.2-0.6-0.3-0.8-0.4-2-0.4-1.3 0-1.3 0.1-2.1 0.5-2.7 1.4-3.3 4.9-1.3 7.1 0.6 0.7 1.3 1.2 2.3 1.5q1.1 0.3 0.9 1.1c-0.2 0.5-0.6 0.7-1.4 0.4-1.6-0.4-3.1-1.6-3.8-2.9-0.2-0.4-0.5-1.1-0.7-1.6l-0.2-0.9h-7.4l-0.1 0.7c-0.5 2.2-2.2 4-4.3 4.7-1.6 0.5-3.9 0.2-5-0.5-0.8-0.5-0.6-1.6 0.2-1.6 0.2 0 0.7 0.1 1.1 0.3 0.6 0.3 0.9 0.4 1.8 0.4 0.9 0 1.2-0.1 1.9-0.4 1-0.5 1.8-1.3 2.3-2.3 0.3-0.6 0.4-0.9 0.4-1.9 0-1-0.1-1.3-0.4-1.9-0.4-1-1.3-1.9-2.2-2.3-0.6-0.3-0.8-0.4-2-0.4-1.2 0-1.4 0.1-2 0.4-0.9 0.4-1.8 1.3-2.2 2.3-0.4 0.9-0.5 2.4-0.1 3.5q0.4 1.3-0.3 1.5c-0.5 0.3-0.9 0.1-1.2-0.6-1.3-2.9-0.1-6.5 2.6-8l0.7-0.4v-5.4l-2.8 0.1c-2.6 0-2.8 0-3.2 0.3-0.5 0.4-0.6 0.9-0.6 3.3 0 1.2-0.1 2.3-0.2 2.5-0.1 0.3-0.7 0.5-1 0.3-0.5-0.2-0.6-0.4-0.5-3.5 0-2.7 0-2.9 0.3-3.5 0.3-0.6 0.8-0.9 1.9-1.1 0.3-0.1 3.6-0.1 7.3-0.1 7.2 0 7.1 0 7.6-0.7 0.3-0.5 0.3-1.2 0-1.7-0.4-0.9 0-0.9-10.5-0.9h-9.5l-1 1.1-0.9 1.1 0.7 1c0.4 0.6 0.7 1.2 0.7 1.3 0.1 0.4-0.1 0.7-0.7 1.1l-0.6 0.4 0.6 3.5c0.4 2 0.6 3.6 0.6 3.7 0 0 0.1 0.4 0.2 0.8 0.2 0.4 0.4 1 0.4 1.4l0.1 0.6h2.7v-1c0-0.8 0.1-1.1 0.3-1.3 0.3-0.4 0.8-0.4 1.2 0 0.3 0.2 0.3 0.4 0.3 1.9 0 2.3 0.1 2.2-2.7 2.2-1.9 0-2.1 0-2.2 0.2 0 0.1-0.2 0.6-0.5 1.1-0.7 1.6-2.2 2.8-3.9 3.3-0.9 0.2-2.5 0.2-3.4-0.1-2-0.6-3.7-2.2-4.4-4.3 0-0.2-0.2-0.2-1.9-0.2-1.8 0-1.9 0-2.1-0.3l-0.3-0.3v-6.7c0.1-6.2 0.1-6.7 0.3-7.6 0.4-1.3 0.6-1.6 1.2-1.6 0.5 0 0.9 0.3 0.9 0.6 0 0.1-0.1 0.7-0.3 1.2-0.2 1-0.3 1.3-0.3 7l-0.1 5.9h2.3l0.1-0.7c0.1-0.5 0.2-2.6 0.2-5.4 0-5.1 0-5.1 0.8-5.1 0.9 0 0.9 0 0.9 3.6v3.2l0.4-0.4c0.8-0.5 1.6-0.3 1.6 0.6 0 0.3-0.1 0.5-0.7 1.1-1.5 1.4-1.9 3.5-1 5.4 0.4 0.8 1.5 1.9 2.4 2.3 1 0.3 2.5 0.3 3.4 0 2-0.8 3.3-3 2.9-5-0.4-2.2-1.9-3.7-4.1-3.9-1.1-0.2-1.1-0.2-1.3-0.6-0.2-0.3-0.1-0.6 0.2-2.8l0.4-2.3-0.6-0.4c-0.4-0.3-0.7-0.7-0.7-1 0-0.1 0.3-0.6 0.6-1.2l0.7-1-0.3-0.4c-0.2-0.2-0.6-0.8-1-1.2-0.6-0.7-0.6-0.7-1.2-0.7-1-0.1-2.4 0.2-3.3 0.5-0.7 0.2-0.9 0.2-1.2 0.1-0.4-0.2-0.6-0.9-0.3-1.3 0.2-0.4 1.9-0.9 4-1.1l1.1-0.1 0.3-0.9 0.2-0.9-0.6-0.6c-1.1-1.1-1.8-2.4-2.2-4.2-0.2-1.2-0.2-3 0-4 0.2-0.9 0.9-2.3 1.3-2.8 0.6-0.6 1.3-0.4 1.5 0.3q0.1 0.3-0.4 1.1c-0.5 0.8-0.8 1.6-0.9 2.6-0.1 0.6 0 0.6 0.9 0.2 0.8-0.4 1.2-0.9 1.5-1.8 0.3-1.2 0.6-1.4 1.7-1 1.5 0.4 3.2 0.7 4.4 0.7 1.5 0 2.1-0.2 2.3-0.6 0.1-0.5 0.1-2-0.1-2.3-0.1-0.3-0.1-0.3-1-0.1-1 0.3-2.4 0.3-3.5 0.1-0.7-0.2-0.9-0.2-1.6-0.1-0.5 0.1-1.1 0.2-1.4 0.2-0.5 0-0.6 0-0.8-0.3-0.1-0.3-0.1-0.5 0-0.7 0.2-0.8 2.6-1.2 4.4-0.7 0.8 0.1 1.1 0.1 1.8 0 0.5 0 1-0.2 1.1-0.2 1-0.4 2 0 2.5 1zm-8 4.8c-0.2-0.1-0.3 0.1-0.5 0.5-0.3 0.7-1.1 1.6-1.8 1.9-0.2 0.1-0.7 0.3-1.1 0.4l-0.7 0.3 0.2 0.7c0.7 2.7 3 4.3 5.7 4.1 2.2-0.2 4.1-2.1 4.5-4.4 0.1-0.3 0.2-1.2 0.1-1.8l-0.1-1.2-0.5 0.1c-0.7 0.1-3.2 0-4.5-0.3-0.6-0.1-1.2-0.3-1.3-0.3zm46.1 0.2h-27.9v10.1h3.3c3.5 0 3.8 0.1 4.7 0.7 0.7 0.5 1.1 1.3 1.1 2.4 0.1 0.6 0 1.2-0.1 1.4-0.2 0.7-0.8 1.4-1.4 1.8l-0.6 0.4-6.9 0.1v2.4l-0.1 2.4h1.2c0.8 0.1 1.4 0.2 2 0.4 0.7 0.3 0.9 0.4 2.9 0.4 1.1 0 2.2 0 2.3 0.1 0.1 0.1 0.3 0.3 0.4 0.5 0.1 0.4 0.1 0.5-0.1 0.7-0.2 0.3-0.3 0.4-1.4 0.4-0.7 0-1.2 0.1-1.1 0.1 0 0.1 0.2 0.4 0.4 0.9 0.2 0.4 0.5 0.9 0.5 1.2l0.1 0.4h7.4l0.2-0.7c0.2-0.4 0.4-1 0.6-1.3l0.4-0.6h-1.9c-1.7 0-2 0-2.2-0.2-0.2-0.3-0.2-0.8 0.1-1.2l0.2-0.3h2.9c2.9 0 2.9 0 3.7-0.4 0.8-0.3 1-0.3 2.3-0.3 1.2 0 1.5 0 2.2 0.3 0.7 0.3 1 0.3 2.8 0.3l2 0.1zm-47.3 9.1c-0.1 0-0.5 1.4-0.4 1.6 0 0.1 0.4 0.6 1 1.3l0.9 1.1h0.8 0.8l2.1-2.5-0.2-0.7c0-0.5-0.1-0.8-0.1-0.8 0 0-0.3 0.1-0.7 0.2-0.7 0.2-2.2 0.2-3.3 0-0.5-0.1-0.9-0.2-0.9-0.2zm2.4 5.8c-0.6 0-0.6 0-1 0.6l-0.5 0.7 0.5 0.2c0.2 0.2 0.4 0.5 0.5 0.6 0 0.2-0.1 1.3-0.3 2.5l-0.4 2.2 0.5 0.1c0.2 0 0.8 0.2 1.2 0.4 0.4 0.2 0.8 0.4 0.8 0.4 0.1 0-0.1-1.2-0.4-2.7-0.2-1.4-0.4-2.7-0.3-2.9 0-0.1 0.2-0.4 0.5-0.6l0.4-0.2-0.4-0.7c-0.5-0.6-0.5-0.6-1.1-0.6zm44.7 9.3h-1.5l0.4 0.8c0.2 0.4 0.5 1 0.5 1.3l0.2 0.6h1.1c1.1 0 1.2-0.1 1.5-0.4 0.2-0.2 0.4-0.5 0.4-0.7 0.2-0.4-0.2-1.1-0.7-1.4-0.3-0.1-0.8-0.2-1.9-0.2z"/>
		<path id="Layer" class="s0" d="m36 13.4c-0.3 0.3-0.3 0.7 0 1.1l0.1 0.2h9.3 9.2l0.2-0.2c0.3-0.4 0.3-0.8-0.1-1.1-0.2-0.3-0.4-0.3-9.3-0.3-9 0-9.1 0-9.4 0.3z"/>
		<path id="Layer" class="s0" d="m42.6 17.5c-0.4 0.3-0.5 0.9-0.1 1.3 0.2 0.2 0.4 0.2 6.1 0.2 5.7 0 5.9 0 6.1-0.3 0.4-0.3 0.4-0.9 0-1.2-0.2-0.2-0.5-0.2-6-0.2-5.7-0.1-5.8-0.1-6.1 0.2z"/>
		<path id="Layer" class="s0" d="m45.7 21.8c-0.4 0.4-0.4 0.9 0 1.2 0.3 0.2 0.5 0.2 4.5 0.2 4 0 4.1 0 4.5-0.2 0.4-0.3 0.4-0.9 0-1.3-0.2-0.2-0.4-0.2-4.5-0.2h-4.3z"/>
		<path id="Layer" class="s0" d="m45.6 26c-0.3 0.3-0.3 0.7 0 1.1l0.2 0.3h4.4 4.4l0.2-0.3c0.3-0.4 0.3-0.8-0.1-1.1-0.2-0.2-0.4-0.3-4.5-0.3-4.2 0-4.3 0.1-4.6 0.3z"/>
		<path id="Layer" class="s0" d="m7.7 44.1c-1.4 0.2-3.2 1-4.2 1.8-0.4 0.3-0.5 0.5-0.5 0.7 0 0.4 0.5 1 0.8 1 0.1 0 0.5-0.2 1-0.5 1.9-1.3 2.7-1.4 7.7-1.3 3.2 0 3.9 0.1 4.5 0.2 1.4 0.5 2.7 1.4 3.5 2.3l0.4 0.5-0.4 1.2-0.4 1.2-0.1 4c0 4.1 0 4.1 0.3 4.7 0.1 0.3 0.5 0.7 0.8 0.9l0.6 0.4h9.6c10.2 0.1 9.9 0.1 10.1-0.5 0.3-0.7-0.3-1.2-1.4-1.2h-0.7l-0.1-3.5v-3.4l-0.3-0.2c-0.4-0.4-0.8-0.3-1.2 0l-0.3 0.3v3.4 3.4h-5.4-5.4v-3.4-3.4l-0.3-0.3c-0.3-0.3-0.8-0.4-1.2 0l-0.3 0.2v3.4l-0.1 3.5h-1.2q-1.3 0-1.5-0.2c-0.2-0.2-0.2-7.3 0.1-8.2 0.6-2.3 2.4-4.3 4.7-5 0.9-0.3 1.1-0.3 5.2-0.3 4.1 0 4.3 0 5.2 0.3 2.3 0.7 4.1 2.7 4.7 5 0.2 0.6 0.2 1.4 0.2 3.9 0 3.4 0.1 3.7 0.6 4 0.4 0.1 1 0 1.2-0.4q0.1-0.2 0.1-3.8l-0.1-3.6-0.4-1.2-0.4-1.2 0.4-0.5c0.6-0.6 1.5-1.4 2.5-1.9 1.1-0.5 1.3-0.9 0.9-1.4-0.4-0.6-0.8-0.6-1.8-0.1-0.9 0.5-2.4 1.6-2.8 2.1l-0.2 0.3-1-0.8c-1-1-2.2-1.7-3.6-2.2-0.9-0.2-1.1-0.2-5.5-0.2-4.4 0-4.6 0-5.5 0.2-1.4 0.5-2.5 1.2-3.6 2.1l-0.9 0.9-0.8-0.8c-1.3-1.3-3-2.1-4.8-2.4-0.8-0.1-7.9-0.1-8.7 0z"/>
		<path id="Layer" class="s0" d="m48.6 44.3c-0.4 0.4-0.4 0.8-0.2 1.2 0.2 0.2 0.4 0.2 4.1 0.3 3.2 0 4.1 0.1 4.6 0.3 0.6 0.1 0.7 0.1 1 0 0.6-0.3 0.6-1.3-0.1-1.6-1-0.4-1.5-0.4-5.2-0.5h-3.9z"/>
		<path id="Layer" class="s0" d="m60.1 46.2c-0.8 0.3-0.8 0.7 0.1 1.7 0.4 0.4 0.9 1.1 1.1 1.5 0.8 1.5 0.9 1.8 0.9 5.8 0.1 4.6 0.2 4.3-1.6 4.3h-1.4v-3.4c0-3.4 0-3.4-0.2-3.7-0.5-0.5-1.3-0.3-1.5 0.4-0.1 0.2-0.1 1.5-0.1 3.5v3.2h-2.6-2.6l-0.3 0.3c-0.3 0.4-0.3 0.8 0.1 1.2 0.2 0.2 0.5 0.2 5.3 0.2h5.2l0.5-0.4c1-0.8 0.9-0.7 0.9-5.2 0-3 0-4.2-0.1-4.7-0.4-1.7-2-4.2-2.9-4.7-0.4-0.2-0.5-0.2-0.8 0z"/>
		<path id="Layer" class="s0" d="m1.5 48.3c-0.6 0.3-1.3 2.3-1.4 3.9-0.1 1-0.1 1 0.2 1.4 0.3 0.3 0.8 0.4 1.1 0.1 0.2-0.1 0.3-0.5 0.4-1.4 0.1-0.8 0.3-1.6 0.5-2.1 0.4-1 0.5-1.6 0.3-1.8-0.3-0.2-0.9-0.3-1.1-0.1z"/>
		<path id="Layer" class="s0" d="m5 52.4c-0.2 0.3-0.3 0.4-0.3 3.7v3.4h-1.2c-1.8 0-1.8 0-1.8-2 0-1.3 0-1.5-0.2-1.7-0.3-0.4-0.8-0.4-1.2 0-0.3 0.3-0.3 0.4-0.3 2 0.1 2 0.2 2.3 1 3l0.5 0.4h8.6c8.4 0.1 8.5 0.1 8.8-0.2 0.2-0.2 0.2-0.4 0.2-4.3 0-4 0-4.1-0.2-4.3-0.4-0.4-0.9-0.3-1.2 0-0.3 0.3-0.3 0.4-0.3 3.7v3.4h-5.5-5.4v-3.4c0-3.3 0-3.5-0.3-3.7-0.3-0.4-0.8-0.4-1.2 0z"/>
		<path id="Layer" class="s0" d="m45.2 52.4c-0.3 0.2-0.3 0.3-0.3 3.6v3.5l-0.4 0.2q-0.7 0.5-0.1 1.2l0.2 0.4h2.6c2.9 0 2.9-0.1 3.1-0.8 0.1-0.3 0-0.4-0.2-0.7-0.3-0.3-0.4-0.3-1.9-0.3h-1.6v-3.4c0-3.4 0-3.4-0.3-3.7-0.3-0.4-0.8-0.4-1.1 0z"/>
	</g>
</svg>